<?xml version="1.0" standalone="no"?><!DOCTYPE svg PUBLIC "-//W3C//DTD SVG 1.1//EN" "http://www.w3.org/Graphics/SVG/1.1/DTD/svg11.dtd"><svg t="1709795728902" class="icon" viewBox="0 0 1024 1024" version="1.1" xmlns="http://www.w3.org/2000/svg" p-id="4332" xmlns:xlink="http://www.w3.org/1999/xlink" width="128" height="128"><path d="M512.812842 959.333921c-29.081672 0-57.079555-13.727994-76.76839-37.571353L351.870171 820.067031c-20.230729-24.565885-67.736814-46.78356-99.527959-46.783559H125.538896C63.221027 773.283472 12.463574 722.526019 12.463574 660.20815V238.252955c0-62.317869 50.757453-113.075322 113.075322-113.075322h774.909155c62.317869 0 113.075322 50.757453 113.075322 113.075322v421.774563c0 62.317869-50.757453 113.075322-113.075322 113.075322h-126.803316c-31.791145 0-79.297231 22.398307-99.52796 46.78356l-84.174281 101.876168c-20.050097 23.843359-48.04798 37.571353-77.129652 37.571353zM125.538896 196.346446c-23.120833 0-41.906509 18.785676-41.906509 41.906509v421.774563c0 23.120833 18.785676 41.906509 41.906509 41.906509h126.803316c52.744399 0 120.661845 31.791145 154.259305 72.613865l84.174281 101.876169c6.322103 7.586523 14.089257 11.741048 22.037044 11.741047 7.947786 0 15.714941-4.154525 22.037043-11.741047l84.174282-101.876169c33.59746-40.642089 101.514906-72.613865 154.259305-72.613865h126.803316c23.120833 0 41.906509-18.785676 41.906509-41.906509V238.252955c0-23.120833-18.785676-41.906509-41.906509-41.906509H125.538896z" fill="#727171" p-id="4333"></path><path d="M279.256306 449.772447m-67.19492 0a67.19492 67.19492 0 1 0 134.38984 0 67.19492 67.19492 0 1 0-134.38984 0Z" fill="#727171" p-id="4334"></path><path d="M512.812842 449.772447m-67.19492 0a67.19492 67.19492 0 1 0 134.38984 0 67.19492 67.19492 0 1 0-134.38984 0Z" fill="#727171" p-id="4335"></path><path d="M746.550009 449.772447m-67.19492 0a67.19492 67.19492 0 1 0 134.38984 0 67.19492 67.19492 0 1 0-134.38984 0Z" fill="#727171" p-id="4336"></path></svg>