<?xml version="1.0" standalone="no"?><!DOCTYPE svg PUBLIC "-//W3C//DTD SVG 1.1//EN" "http://www.w3.org/Graphics/SVG/1.1/DTD/svg11.dtd"><svg t="1709782544030" class="icon" viewBox="0 0 1024 1024" version="1.1" xmlns="http://www.w3.org/2000/svg" p-id="9433" xmlns:xlink="http://www.w3.org/1999/xlink" width="128" height="128"><path d="M832.36132813 344.80247107H210.09570287l-3.95507812-14.50195286c-9.22851588-31.640625 6.59179662-65.25878906 36.25488332-78.44238307L639.88085963 75.19797915C655.70117213 67.94700233 674.15820313 67.28782289 690.63769505 73.87961952s29.66308594 18.457031 36.91406276 34.93652368L832.36132813 344.80247107z m-588.6474612-39.55078125h527.34375026L691.29687525 124.63645571c-2.6367185-6.59179662-7.91015625-11.20605494-14.50195363-13.84277345-6.59179662-2.6367185-13.84277344-2.6367185-20.43457006 0.65917945L258.875 288.1130177c-7.91015625 3.29589869-12.52441381 9.88769531-15.16113307 17.13867212z" fill="#323232" p-id="9434"></path><path d="M832.36132813 344.80247107H136.26757812v-32.95898464c0-61.96289037 50.097656-112.06054713 112.06054713-112.06054637h111.40136694L639.88085963 75.19797915C655.70117213 67.94700233 674.15820313 67.28782289 690.63769505 73.87961952s29.66308594 18.457031 36.91406276 34.93652368L832.36132813 344.80247107zM175.81835937 305.25168982h595.23925782L691.29687525 124.63645571c-2.6367185-6.59179662-7.91015625-11.20605494-14.50195363-13.84277345-6.59179662-2.6367185-13.84277344-2.6367185-20.43457006 0.65917945L368.29882787 239.33372131H248.32812525c-37.57324219 0-68.55468775 29.0039065-72.50976588 65.91796851z" fill="#323232" p-id="9435"></path><path d="M834.99804662 858.96262732H189.00195338c-29.0039065 0-52.73437525-23.73046875-52.73437525-52.73437526V305.25168982h698.73046849c29.0039065 0 52.73437525 23.73046875 52.73437526 52.73437526v448.24218698c0 29.0039065-23.73046875 52.73437525-52.73437526 52.73437526zM175.81835937 344.80247107v461.42578099c0 7.25097682 5.93261719 13.18359399 13.18359401 13.18359402h645.99609324c7.25097682 0 13.18359399-5.93261719 13.18359401-13.18359402V357.98606508c0-7.25097682-5.93261719-13.18359399-13.18359401-13.18359401H175.81835937z" fill="#323232" p-id="9436"></path><path d="M719.64160156 680.98411171c-30.98144557 0-56.03027318-25.04882838-56.03027318-56.03027319v-79.1015625c0-30.98144557 25.04882838-56.03027318 56.03027318-56.03027395s56.03027318 25.04882838 56.03027319 56.03027395v79.1015625c0 30.98144557-25.04882838 56.03027318-56.03027319 56.03027317z m0-151.61132839c-9.22851588 0-16.47949193 7.25097682-16.47949193 16.4794927v79.1015625c0 9.22851588 7.25097682 16.47949193 16.47949193 16.47949193s16.47949193-7.25097682 16.47949194-16.47949193v-79.1015625c0-9.22851588-7.25097682-16.47949193-16.47949194-16.4794927zM347.47534154 307.70383825l369.36474609-157.28027317 15.49072318 36.38671875-369.35815456 157.28027317z" fill="#323232" p-id="9437"></path></svg>